<mxfile host="app.diagrams.net" modified="2021-02-17T10:30:05.602Z" agent="5.0 (Macintosh; Intel Mac OS X 11_0_1) AppleWebKit/537.36 (KHTML, like Gecko) Chrome/88.0.4324.150 Safari/537.36" etag="T5GGg5n4g1rYoV6SKWea" version="14.2.3" type="github">
  <diagram id="QcBFi6kys6QoKRbIcF92" name="Page-1">
    <mxGraphModel dx="678" dy="437" grid="1" gridSize="10" guides="1" tooltips="1" connect="1" arrows="1" fold="1" page="1" pageScale="1" pageWidth="827" pageHeight="1169" math="0" shadow="0">
      <root>
        <mxCell id="0" />
        <mxCell id="1" parent="0" />
        <mxCell id="vO9deKGMKesITOdWoDPT-30" value="" style="rounded=1;whiteSpace=wrap;html=1;" vertex="1" parent="1">
          <mxGeometry x="80" y="420" width="70" height="50" as="geometry" />
        </mxCell>
        <mxCell id="vO9deKGMKesITOdWoDPT-11" style="rounded=0;orthogonalLoop=1;jettySize=auto;html=1;entryX=0;entryY=0.5;entryDx=0;entryDy=0;" edge="1" parent="1" source="vO9deKGMKesITOdWoDPT-7" target="vO9deKGMKesITOdWoDPT-10">
          <mxGeometry relative="1" as="geometry" />
        </mxCell>
        <mxCell id="vO9deKGMKesITOdWoDPT-7" value="&lt;b&gt;Repo&lt;/b&gt;" style="rounded=1;whiteSpace=wrap;html=1;" vertex="1" parent="1">
          <mxGeometry x="140" y="310" width="120" height="50" as="geometry" />
        </mxCell>
        <mxCell id="vO9deKGMKesITOdWoDPT-14" style="edgeStyle=none;rounded=0;orthogonalLoop=1;jettySize=auto;html=1;" edge="1" parent="1" source="vO9deKGMKesITOdWoDPT-1" target="vO9deKGMKesITOdWoDPT-8">
          <mxGeometry relative="1" as="geometry" />
        </mxCell>
        <mxCell id="vO9deKGMKesITOdWoDPT-15" value="GET /api/validate/{iban}" style="edgeLabel;html=1;align=center;verticalAlign=middle;resizable=0;points=[];" vertex="1" connectable="0" parent="vO9deKGMKesITOdWoDPT-14">
          <mxGeometry x="-0.3473" y="-1" relative="1" as="geometry">
            <mxPoint y="-11" as="offset" />
          </mxGeometry>
        </mxCell>
        <mxCell id="vO9deKGMKesITOdWoDPT-1" value="&lt;b&gt;&lt;i&gt;Postman&lt;/i&gt;&lt;/b&gt;&lt;br&gt;test" style="shape=image;html=1;verticalAlign=top;verticalLabelPosition=bottom;labelBackgroundColor=#ffffff;imageAspect=0;aspect=fixed;image=https://cdn4.iconfinder.com/data/icons/logos-brands-5/24/postman-128.png" vertex="1" parent="1">
          <mxGeometry x="40" y="150" width="60" height="60" as="geometry" />
        </mxCell>
        <mxCell id="vO9deKGMKesITOdWoDPT-2" value="" style="rounded=1;whiteSpace=wrap;html=1;" vertex="1" parent="1">
          <mxGeometry x="240" y="200" width="280" height="40" as="geometry" />
        </mxCell>
        <mxCell id="vO9deKGMKesITOdWoDPT-3" value="&lt;b&gt;Openshift Serverless&lt;/b&gt;" style="aspect=fixed;html=1;points=[];align=left;image;fontSize=12;image=img/lib/mscae/OpenShift.svg;labelPosition=right;verticalLabelPosition=middle;verticalAlign=middle;" vertex="1" parent="1">
          <mxGeometry x="249" y="217" width="21.74" height="20" as="geometry" />
        </mxCell>
        <mxCell id="vO9deKGMKesITOdWoDPT-6" value="" style="shape=image;html=1;verticalAlign=top;verticalLabelPosition=bottom;labelBackgroundColor=#ffffff;imageAspect=0;aspect=fixed;image=https://cdn1.iconfinder.com/data/icons/logotypes/32/github-128.png" vertex="1" parent="1">
          <mxGeometry x="145" y="333" width="20" height="20" as="geometry" />
        </mxCell>
        <mxCell id="vO9deKGMKesITOdWoDPT-19" style="edgeStyle=none;rounded=0;orthogonalLoop=1;jettySize=auto;html=1;startArrow=classic;startFill=1;" edge="1" parent="1" source="vO9deKGMKesITOdWoDPT-8" target="vO9deKGMKesITOdWoDPT-17">
          <mxGeometry relative="1" as="geometry" />
        </mxCell>
        <mxCell id="vO9deKGMKesITOdWoDPT-20" value="SOAP call" style="edgeLabel;html=1;align=center;verticalAlign=middle;resizable=0;points=[];" vertex="1" connectable="0" parent="vO9deKGMKesITOdWoDPT-19">
          <mxGeometry x="-0.1176" y="-1" relative="1" as="geometry">
            <mxPoint x="12.35" y="-11" as="offset" />
          </mxGeometry>
        </mxCell>
        <mxCell id="vO9deKGMKesITOdWoDPT-8" value="VAT Validation Service&lt;br&gt;&lt;b&gt;&lt;i&gt;&lt;br&gt;Knative Service&lt;/i&gt;&lt;/b&gt;" style="rounded=1;whiteSpace=wrap;html=1;fillColor=#f5f5f5;strokeColor=#666666;fontColor=#333333;verticalAlign=bottom;" vertex="1" parent="1">
          <mxGeometry x="310" y="150" width="180" height="60" as="geometry" />
        </mxCell>
        <mxCell id="vO9deKGMKesITOdWoDPT-12" style="rounded=0;orthogonalLoop=1;jettySize=auto;html=1;fillColor=#f5f5f5;strokeColor=#666666;" edge="1" parent="1" source="vO9deKGMKesITOdWoDPT-10" target="vO9deKGMKesITOdWoDPT-8">
          <mxGeometry relative="1" as="geometry" />
        </mxCell>
        <mxCell id="vO9deKGMKesITOdWoDPT-10" value="&lt;b&gt;&lt;i&gt;Openshift Pipelines (CI/CD)&lt;/i&gt;&lt;/b&gt;" style="rounded=1;whiteSpace=wrap;html=1;fontFamily=Helvetica;fontSize=12;fontColor=#333333;align=center;strokeColor=#666666;fillColor=#f5f5f5;verticalAlign=bottom;" vertex="1" parent="1">
          <mxGeometry x="310" y="280" width="180" height="50" as="geometry" />
        </mxCell>
        <mxCell id="vO9deKGMKesITOdWoDPT-4" value="" style="shape=image;verticalLabelPosition=bottom;labelBackgroundColor=#ffffff;verticalAlign=top;aspect=fixed;imageAspect=0;image=https://raw.githubusercontent.com/tektoncd/website/master/tutorials/katacoda/logo.png;" vertex="1" parent="1">
          <mxGeometry x="361" y="284" width="79.45" height="25.51" as="geometry" />
        </mxCell>
        <mxCell id="vO9deKGMKesITOdWoDPT-13" value="" style="shape=image;verticalLabelPosition=bottom;labelBackgroundColor=#ffffff;verticalAlign=top;aspect=fixed;imageAspect=0;image=https://miro.medium.com/max/735/1*obfgJOC6Y7S2lSX6eHklIA.png;" vertex="1" parent="1">
          <mxGeometry x="320" y="187" width="24.76" height="20" as="geometry" />
        </mxCell>
        <mxCell id="vO9deKGMKesITOdWoDPT-16" value="" style="endArrow=none;dashed=1;html=1;dashPattern=1 3;strokeWidth=2;" edge="1" parent="1">
          <mxGeometry width="50" height="50" relative="1" as="geometry">
            <mxPoint x="560" y="391.54" as="sourcePoint" />
            <mxPoint x="560" y="61.54" as="targetPoint" />
          </mxGeometry>
        </mxCell>
        <mxCell id="vO9deKGMKesITOdWoDPT-17" value="&lt;b&gt;&lt;i&gt;SOAP Service EU&lt;br&gt;VAT validation/lookup service&lt;br&gt;&lt;br&gt;&lt;/i&gt;&lt;/b&gt;" style="rounded=1;whiteSpace=wrap;html=1;fillColor=#f5f5f5;strokeColor=#666666;fontColor=#333333;verticalAlign=bottom;" vertex="1" parent="1">
          <mxGeometry x="620" y="150" width="180" height="60" as="geometry" />
        </mxCell>
        <mxCell id="vO9deKGMKesITOdWoDPT-29" value="" style="shape=image;verticalLabelPosition=bottom;labelBackgroundColor=#ffffff;verticalAlign=top;aspect=fixed;imageAspect=0;image=https://upload.wikimedia.org/wikipedia/commons/d/d9/Node.js_logo.svg;" vertex="1" parent="1">
          <mxGeometry x="92.11000000000001" y="431" width="45.78" height="28" as="geometry" />
        </mxCell>
        <mxCell id="vO9deKGMKesITOdWoDPT-31" value="&lt;b&gt;&lt;i&gt;Apache Camel K&lt;/i&gt;&lt;/b&gt;" style="rounded=1;whiteSpace=wrap;html=1;verticalAlign=bottom;" vertex="1" parent="1">
          <mxGeometry x="80" y="490" width="105" height="50" as="geometry" />
        </mxCell>
        <mxCell id="vO9deKGMKesITOdWoDPT-25" value="" style="shape=image;verticalLabelPosition=bottom;labelBackgroundColor=#ffffff;verticalAlign=top;aspect=fixed;imageAspect=0;image=https://pbs.twimg.com/profile_images/1090189047367192577/xWt1RFo6.jpg;" vertex="1" parent="1">
          <mxGeometry x="96" y="501" width="19" height="19" as="geometry" />
        </mxCell>
        <mxCell id="vO9deKGMKesITOdWoDPT-32" value="" style="endArrow=none;html=1;" edge="1" parent="1">
          <mxGeometry width="50" height="50" relative="1" as="geometry">
            <mxPoint x="40" y="400" as="sourcePoint" />
            <mxPoint x="520" y="400" as="targetPoint" />
          </mxGeometry>
        </mxCell>
        <mxCell id="vO9deKGMKesITOdWoDPT-33" value="Nodejs implementation" style="text;html=1;strokeColor=none;fillColor=none;align=center;verticalAlign=middle;whiteSpace=wrap;rounded=0;" vertex="1" parent="1">
          <mxGeometry x="169" y="439" width="141" height="20" as="geometry" />
        </mxCell>
        <mxCell id="vO9deKGMKesITOdWoDPT-34" value="Camel-K implementation" style="text;html=1;strokeColor=none;fillColor=none;align=center;verticalAlign=middle;whiteSpace=wrap;rounded=0;" vertex="1" parent="1">
          <mxGeometry x="200" y="501" width="141" height="20" as="geometry" />
        </mxCell>
      </root>
    </mxGraphModel>
  </diagram>
</mxfile>
